<?xml version="1.0" standalone="no"?>
<!DOCTYPE svg PUBLIC "-//W3C//DTD SVG 20010904//EN"
 "http://www.w3.org/TR/2001/REC-SVG-20010904/DTD/svg10.dtd">
<svg version="1.0" xmlns="http://www.w3.org/2000/svg"
 width="260.000000pt" height="260.000000pt" viewBox="0 0 260.000000 260.000000"
 preserveAspectRatio="xMidYMid meet">
<metadata>
Created by potrace 1.11, written by Peter Selinger 2001-2013
</metadata>
<g transform="translate(0.000000,260.000000) scale(0.100000,-0.100000)"
fill="#000000" stroke="none">
<path d="M665 2589 c-316 -60 -558 -284 -641 -594 -18 -65 -19 -115 -19 -695
0 -580 1 -630 19 -695 78 -293 287 -499 591 -583 53 -15 132 -17 685 -17 553
0 632 2 685 17 256 71 444 227 545 452 66 146 65 137 65 826 0 580 -1 630 -19
695 -78 291 -280 492 -586 583 -48 14 -132 17 -665 18 -350 1 -631 -2 -660 -7z
m854 -684 c96 -23 185 -71 251 -136 68 -67 103 -123 137 -222 35 -99 44 -307
19 -421 -39 -172 -146 -315 -290 -386 -128 -63 -176 -70 -533 -70 l-313 0 0
625 0 625 333 0 c262 0 346 -4 396 -15z"/>
<path d="M1120 1295 l0 -365 123 0 c148 0 197 14 255 71 77 77 107 180 99 339
-7 149 -58 249 -151 295 -46 23 -61 25 -188 25 l-138 0 0 -365z"/>
</g>
</svg>
