<?xml version="1.0" encoding="UTF-8"?>
<svg width="20px" height="20px" viewBox="0 0 20 20" version="1.1" xmlns="http://www.w3.org/2000/svg" xmlns:xlink="http://www.w3.org/1999/xlink">
    <!-- Generator: Sketch 48.2 (47327) - http://www.bohemiancoding.com/sketch -->
    <title>Fill 1</title>
    <desc>Created with Sketch.</desc>
    <defs></defs>
    <g id="Button/Close" stroke="none" stroke-width="1" fill="none" fill-rule="evenodd" transform="translate(-18.000000, -18.000000)">
        <g fill="#2C3739" id="Fill-1">
            <path d="M37.4829412,21.0128526 L30.4952941,28.0002941 L37.4829412,34.9871474 C37.8023529,35.3065498 38,35.7477133 38,36.235346 C38,37.209435 37.2094118,38 36.2352941,38 C35.7476471,38 35.3070588,37.8023588 34.9876471,37.4829564 L28,30.4955148 L21.0123529,37.4829564 C20.6929412,37.8023588 20.2517647,38 19.7647059,38 C18.7905882,38 18,37.209435 18,36.235346 C18,35.7477133 18.1976471,35.3065498 18.5170588,34.9871474 L25.5047059,28.0002941 L18.5170588,21.0128526 C18.1976471,20.6934502 18,20.2522867 18,19.7652422 C18,18.790565 18.7905882,18 19.7647059,18 C20.2517647,18 20.6929412,18.1976412 21.0123529,18.5170436 L28,25.5044852 L34.9876471,18.5170436 C35.3070588,18.1976412 35.7476471,18 36.2352941,18 C37.2094118,18 38,18.790565 38,19.7652422 C38,20.2522867 37.8023529,20.6934502 37.4829412,21.0128526"></path>
        </g>
    </g>
</svg>