<?xml version="1.0" encoding="UTF-8"?>
<svg width="141px" height="141px" viewBox="0 0 141 141" version="1.1" xmlns="http://www.w3.org/2000/svg" xmlns:xlink="http://www.w3.org/1999/xlink">
    <!-- Generator: Sketch 48.1 (47250) - http://www.bohemiancoding.com/sketch -->
    <title>Combined Shape</title>
    <desc>Created with Sketch.</desc>
    <defs></defs>
    <g id="Desktop/Home-v2" stroke="none" stroke-width="1" fill="none" fill-rule="evenodd" transform="translate(-1011.000000, -77.000000)">
        <g id="Heading" transform="translate(51.000000, 48.000000)" fill="#39EF9F">
            <g id="BG">
                <path d="M960.866029,29.9452055 L963.803092,29.9452055 L963.803092,32.8822684 L960.866029,32.8822684 L960.866029,29.9452055 Z M960.866029,108.266884 L963.803092,108.266884 L963.803092,111.203947 L960.866029,111.203947 L960.866029,108.266884 Z M960.866029,69.1060446 L963.803092,69.1060446 L963.803092,72.0431076 L960.866029,72.0431076 L960.866029,69.1060446 Z M960.866029,147.427723 L963.803092,147.427723 L963.803092,150.364786 L960.866029,150.364786 L960.866029,147.427723 Z M960.866029,49.5256251 L963.803092,49.5256251 L963.803092,52.462688 L960.866029,52.462688 L960.866029,49.5256251 Z M960.866029,127.847303 L963.803092,127.847303 L963.803092,130.784366 L960.866029,130.784366 L960.866029,127.847303 Z M960.866029,88.6864642 L963.803092,88.6864642 L963.803092,91.6235272 L960.866029,91.6235272 L960.866029,88.6864642 Z M960.866029,167.008143 L963.803092,167.008143 L963.803092,169.945205 L960.866029,169.945205 L960.866029,167.008143 Z M980.446448,29.9452055 L983.383511,29.9452055 L983.383511,32.8822684 L980.446448,32.8822684 L980.446448,29.9452055 Z M980.446448,108.266884 L983.383511,108.266884 L983.383511,111.203947 L980.446448,111.203947 L980.446448,108.266884 Z M980.446448,69.1060446 L983.383511,69.1060446 L983.383511,72.0431076 L980.446448,72.0431076 L980.446448,69.1060446 Z M980.446448,147.427723 L983.383511,147.427723 L983.383511,150.364786 L980.446448,150.364786 L980.446448,147.427723 Z M980.446448,49.5256251 L983.383511,49.5256251 L983.383511,52.462688 L980.446448,52.462688 L980.446448,49.5256251 Z M980.446448,127.847303 L983.383511,127.847303 L983.383511,130.784366 L980.446448,130.784366 L980.446448,127.847303 Z M980.446448,88.6864642 L983.383511,88.6864642 L983.383511,91.6235272 L980.446448,91.6235272 L980.446448,88.6864642 Z M980.446448,167.008143 L983.383511,167.008143 L983.383511,169.945205 L980.446448,169.945205 L980.446448,167.008143 Z M1000.02687,29.9452055 L1002.96393,29.9452055 L1002.96393,32.8822684 L1000.02687,32.8822684 L1000.02687,29.9452055 Z M1000.02687,108.266884 L1002.96393,108.266884 L1002.96393,111.203947 L1000.02687,111.203947 L1000.02687,108.266884 Z M1000.02687,69.1060446 L1002.96393,69.1060446 L1002.96393,72.0431076 L1000.02687,72.0431076 L1000.02687,69.1060446 Z M1000.02687,147.427723 L1002.96393,147.427723 L1002.96393,150.364786 L1000.02687,150.364786 L1000.02687,147.427723 Z M1000.02687,49.5256251 L1002.96393,49.5256251 L1002.96393,52.462688 L1000.02687,52.462688 L1000.02687,49.5256251 Z M1000.02687,127.847303 L1002.96393,127.847303 L1002.96393,130.784366 L1000.02687,130.784366 L1000.02687,127.847303 Z M1000.02687,88.6864642 L1002.96393,88.6864642 L1002.96393,91.6235272 L1000.02687,91.6235272 L1000.02687,88.6864642 Z M1000.02687,167.008143 L1002.96393,167.008143 L1002.96393,169.945205 L1000.02687,169.945205 L1000.02687,167.008143 Z M1019.60729,29.9452055 L1022.54435,29.9452055 L1022.54435,32.8822684 L1019.60729,32.8822684 L1019.60729,29.9452055 Z M1019.60729,108.266884 L1022.54435,108.266884 L1022.54435,111.203947 L1019.60729,111.203947 L1019.60729,108.266884 Z M1019.60729,69.1060446 L1022.54435,69.1060446 L1022.54435,72.0431076 L1019.60729,72.0431076 L1019.60729,69.1060446 Z M1019.60729,147.427723 L1022.54435,147.427723 L1022.54435,150.364786 L1019.60729,150.364786 L1019.60729,147.427723 Z M1019.60729,49.5256251 L1022.54435,49.5256251 L1022.54435,52.462688 L1019.60729,52.462688 L1019.60729,49.5256251 Z M1019.60729,127.847303 L1022.54435,127.847303 L1022.54435,130.784366 L1019.60729,130.784366 L1019.60729,127.847303 Z M1019.60729,88.6864642 L1022.54435,88.6864642 L1022.54435,91.6235272 L1019.60729,91.6235272 L1019.60729,88.6864642 Z M1019.60729,167.008143 L1022.54435,167.008143 L1022.54435,169.945205 L1019.60729,169.945205 L1019.60729,167.008143 Z M1039.18771,29.9452055 L1042.12477,29.9452055 L1042.12477,32.8822684 L1039.18771,32.8822684 L1039.18771,29.9452055 Z M1039.18771,108.266884 L1042.12477,108.266884 L1042.12477,111.203947 L1039.18771,111.203947 L1039.18771,108.266884 Z M1039.18771,69.1060446 L1042.12477,69.1060446 L1042.12477,72.0431076 L1039.18771,72.0431076 L1039.18771,69.1060446 Z M1039.18771,147.427723 L1042.12477,147.427723 L1042.12477,150.364786 L1039.18771,150.364786 L1039.18771,147.427723 Z M1039.18771,49.5256251 L1042.12477,49.5256251 L1042.12477,52.462688 L1039.18771,52.462688 L1039.18771,49.5256251 Z M1039.18771,127.847303 L1042.12477,127.847303 L1042.12477,130.784366 L1039.18771,130.784366 L1039.18771,127.847303 Z M1039.18771,88.6864642 L1042.12477,88.6864642 L1042.12477,91.6235272 L1039.18771,91.6235272 L1039.18771,88.6864642 Z M1039.18771,167.008143 L1042.12477,167.008143 L1042.12477,169.945205 L1039.18771,169.945205 L1039.18771,167.008143 Z M1058.76813,29.9452055 L1061.70519,29.9452055 L1061.70519,32.8822684 L1058.76813,32.8822684 L1058.76813,29.9452055 Z M1058.76813,108.266884 L1061.70519,108.266884 L1061.70519,111.203947 L1058.76813,111.203947 L1058.76813,108.266884 Z M1058.76813,69.1060446 L1061.70519,69.1060446 L1061.70519,72.0431076 L1058.76813,72.0431076 L1058.76813,69.1060446 Z M1058.76813,147.427723 L1061.70519,147.427723 L1061.70519,150.364786 L1058.76813,150.364786 L1058.76813,147.427723 Z M1058.76813,49.5256251 L1061.70519,49.5256251 L1061.70519,52.462688 L1058.76813,52.462688 L1058.76813,49.5256251 Z M1058.76813,127.847303 L1061.70519,127.847303 L1061.70519,130.784366 L1058.76813,130.784366 L1058.76813,127.847303 Z M1058.76813,88.6864642 L1061.70519,88.6864642 L1061.70519,91.6235272 L1058.76813,91.6235272 L1058.76813,88.6864642 Z M1058.76813,167.008143 L1061.70519,167.008143 L1061.70519,169.945205 L1058.76813,169.945205 L1058.76813,167.008143 Z M1078.34855,29.9452055 L1081.28561,29.9452055 L1081.28561,32.8822684 L1078.34855,32.8822684 L1078.34855,29.9452055 Z M1078.34855,108.266884 L1081.28561,108.266884 L1081.28561,111.203947 L1078.34855,111.203947 L1078.34855,108.266884 Z M1078.34855,69.1060446 L1081.28561,69.1060446 L1081.28561,72.0431076 L1078.34855,72.0431076 L1078.34855,69.1060446 Z M1078.34855,147.427723 L1081.28561,147.427723 L1081.28561,150.364786 L1078.34855,150.364786 L1078.34855,147.427723 Z M1078.34855,49.5256251 L1081.28561,49.5256251 L1081.28561,52.462688 L1078.34855,52.462688 L1078.34855,49.5256251 Z M1078.34855,127.847303 L1081.28561,127.847303 L1081.28561,130.784366 L1078.34855,130.784366 L1078.34855,127.847303 Z M1078.34855,88.6864642 L1081.28561,88.6864642 L1081.28561,91.6235272 L1078.34855,91.6235272 L1078.34855,88.6864642 Z M1078.34855,167.008143 L1081.28561,167.008143 L1081.28561,169.945205 L1078.34855,169.945205 L1078.34855,167.008143 Z M1097.92897,29.9452055 L1100.86603,29.9452055 L1100.86603,32.8822684 L1097.92897,32.8822684 L1097.92897,29.9452055 Z M1097.92897,108.266884 L1100.86603,108.266884 L1100.86603,111.203947 L1097.92897,111.203947 L1097.92897,108.266884 Z M1097.92897,69.1060446 L1100.86603,69.1060446 L1100.86603,72.0431076 L1097.92897,72.0431076 L1097.92897,69.1060446 Z M1097.92897,147.427723 L1100.86603,147.427723 L1100.86603,150.364786 L1097.92897,150.364786 L1097.92897,147.427723 Z M1097.92897,49.5256251 L1100.86603,49.5256251 L1100.86603,52.462688 L1097.92897,52.462688 L1097.92897,49.5256251 Z M1097.92897,127.847303 L1100.86603,127.847303 L1100.86603,130.784366 L1097.92897,130.784366 L1097.92897,127.847303 Z M1097.92897,88.6864642 L1100.86603,88.6864642 L1100.86603,91.6235272 L1097.92897,91.6235272 L1097.92897,88.6864642 Z M1097.92897,167.008143 L1100.86603,167.008143 L1100.86603,169.945205 L1097.92897,169.945205 L1097.92897,167.008143 Z" id="Combined-Shape"></path>
            </g>
        </g>
    </g>
</svg>