<svg width="72" height="83" viewBox="0 0 72 83" fill="none" xmlns="http://www.w3.org/2000/svg">
<g filter="url(#filter0_di)">
<path d="M4.29025 46.4185L42.5894 3.38182C43.3237 2.55666 44.6776 3.16835 44.5528 4.26888L41.5693 30.569C41.4928 31.2433 42.0169 31.8344 42.6913 31.8344H66.8684C67.8419 31.8344 68.3593 32.991 67.7139 33.7243L29.0874 77.6136C28.3584 78.442 27.0024 77.8399 27.119 76.7396L29.9989 49.5701C30.0701 48.8986 29.5471 48.3131 28.876 48.3131H5.13157C4.15513 48.3131 3.63886 47.1505 4.29025 46.4185Z" fill="#CBB8A5"/>
<path d="M4.29025 46.4185L42.5894 3.38182C43.3237 2.55666 44.6776 3.16835 44.5528 4.26888L41.5693 30.569C41.4928 31.2433 42.0169 31.8344 42.6913 31.8344H66.8684C67.8419 31.8344 68.3593 32.991 67.7139 33.7243L29.0874 77.6136C28.3584 78.442 27.0024 77.8399 27.119 76.7396L29.9989 49.5701C30.0701 48.8986 29.5471 48.3131 28.876 48.3131H5.13157C4.15513 48.3131 3.63886 47.1505 4.29025 46.4185Z" fill="url(#paint0_linear)" style="mix-blend-mode:overlay"/>
</g>
<defs>
<filter id="filter0_di" x="0" y="0" width="72" height="83" filterUnits="userSpaceOnUse" color-interpolation-filters="sRGB">
<feFlood flood-opacity="0" result="BackgroundImageFix"/>
<feColorMatrix in="SourceAlpha" type="matrix" values="0 0 0 0 0 0 0 0 0 0 0 0 0 0 0 0 0 0 127 0"/>
<feOffset dy="1"/>
<feGaussianBlur stdDeviation="2"/>
<feColorMatrix type="matrix" values="0 0 0 0 0 0 0 0 0 0 0 0 0 0 0 0 0 0 0.25 0"/>
<feBlend mode="normal" in2="BackgroundImageFix" result="effect1_dropShadow"/>
<feBlend mode="normal" in="SourceGraphic" in2="effect1_dropShadow" result="shape"/>
<feColorMatrix in="SourceAlpha" type="matrix" values="0 0 0 0 0 0 0 0 0 0 0 0 0 0 0 0 0 0 127 0" result="hardAlpha"/>
<feOffset dy="1"/>
<feComposite in2="hardAlpha" operator="arithmetic" k2="-1" k3="1"/>
<feColorMatrix type="matrix" values="0 0 0 0 1 0 0 0 0 1 0 0 0 0 1 0 0 0 0.2 0"/>
<feBlend mode="normal" in2="shape" result="effect2_innerShadow"/>
</filter>
<linearGradient id="paint0_linear" x1="36" y1="3" x2="36" y2="78" gradientUnits="userSpaceOnUse">
<stop stop-opacity="0"/>
<stop offset="1" stop-opacity="0.38"/>
</linearGradient>
</defs>
</svg>
