<svg width="64" height="64" xmlns="http://www.w3.org/2000/svg"><g fill="#292929" fill-rule="nonzero"><path d="M3.82 3.82v56.36h56.36V3.82H3.82zM0 0h64v64H0V0z"/><path d="M22.993 40.706c.282.025.608.044.98.057.37.012.813.019 1.325.019 2.996 0 5.218-.744 6.665-2.232 1.447-1.487 2.17-3.542 2.17-6.163 0-2.748-.691-4.828-2.074-6.24s-3.573-2.118-6.57-2.118c-.409 0-.832.007-1.267.02-.435.012-.845.043-1.23.094v16.563zm17.325-8.32c0 2.27-.358 4.248-1.076 5.938-.717 1.689-1.735 3.088-3.054 4.197-1.318 1.11-2.925 1.941-4.82 2.496-1.896.554-4.021.832-6.378.832-1.075 0-2.33-.044-3.764-.133A31.218 31.218 0 0 1 17 45.168V19.643a35.839 35.839 0 0 1 4.322-.51 67.042 67.042 0 0 1 3.86-.133c2.28 0 4.348.252 6.205.756 1.856.505 3.45 1.299 4.782 2.383 1.332 1.084 2.356 2.47 3.073 4.16.718 1.688 1.076 3.718 1.076 6.088zM49 42.522c0 1.134-.365 1.998-1.095 2.59a3.827 3.827 0 0 1-2.478.889 3.827 3.827 0 0 1-2.477-.889c-.73-.592-1.095-1.456-1.095-2.59s.365-1.998 1.095-2.59a3.827 3.827 0 0 1 2.477-.889c.922 0 1.748.296 2.478.889.73.592 1.095 1.456 1.095 2.59z"/></g></svg>